# xmcd
#
# Track frame offsets:
#	150
#	15123
#	26753
#	40996
#	53967
#	69561
#	84655
#	97970
#	116109
#	136109
#	154171
#	169701
#	185565
#	198378
#	211014
#	224830
#	238777
#	253965
#	272530
#
# Disc length: 3828 seconds
#
# Revision: 1
# Processed by: cddbd v1.5.2PL0 Copyright (c) Steve Scherf et al.
# Submitted via: audiograbber 1.83.01
#
DISCID=110ef213
DTITLE=Various Artist - Country Heat '90's
DYEAR=2017
DGENRE=Country
TTITLE0=Brooks and Dunn - Boot Scootin' Boogie
TTITLE1=Travis Tritt - Here's A Quarter (Call Someonw Who Cares)
TTITLE2=Kenny Chesney - How Forever Feels
TTITLE3=Alan Jackson - Don't Rock The Jukebox
TTITLE4=Randy Travis - He Walked On Water
TTITLE5=Dwight Yoakam - Ain't That Lonley Yet
TTITLE6=Lorrie Morgan - Except For Monday
TTITLE7=Lonestar - Amazed
TTITLE8=John Michael Montgomery - I Swear
TTITLE9=Pam Tillis - Maybe It Was Memphis
TTITLE10=Martina McBride - Indpendence Day
TTITLE11=Clay Walker - Dreaming With My Eyes Open
TTITLE12=Alabama - I'm In A Hurry (And Don't Know Why)
TTITLE13=Clint Black - Killin' Time
TTITLE14=David Ball - Thinking Problem
TTITLE15=Tracy Lawrence - Time Marches On
TTITLE16=Mary Chapin-Carpenter - Down At The Twist and Shout
TTITLE17=Little Texas - God Bless Texas
TTITLE18=Confederate Railroad - Trashy Women
EXTD=
EXTT0=
EXTT1=
EXTT2=
EXTT3=
EXTT4=
EXTT5=
EXTT6=
EXTT7=
EXTT8=
EXTT9=
EXTT10=
EXTT11=
EXTT12=
EXTT13=
EXTT14=
EXTT15=
EXTT16=
EXTT17=
EXTT18=
PLAYORDER=
